<mxfile host="Electron" modified="2023-09-15T18:46:57.986Z" agent="Mozilla/5.0 (Windows NT 10.0; Win64; x64) AppleWebKit/537.36 (KHTML, like Gecko) draw.io/21.6.5 Chrome/114.0.5735.243 Electron/25.3.1 Safari/537.36" etag="E5NHdSzRWV88nqGpkgL_" version="21.6.5" type="device">
  <diagram name="Page-1" id="dTtnjgxOWaCXiQJSMLr4">
    <mxGraphModel dx="960" dy="618" grid="1" gridSize="10" guides="1" tooltips="1" connect="1" arrows="1" fold="1" page="1" pageScale="1" pageWidth="850" pageHeight="1100" math="0" shadow="0">
      <root>
        <mxCell id="0" />
        <mxCell id="1" parent="0" />
        <mxCell id="gTqccJFOHpUSPNjWFWXz-5" value="Pool" style="swimlane;childLayout=stackLayout;resizeParent=1;resizeParentMax=0;startSize=20;html=1;" parent="1" vertex="1">
          <mxGeometry x="240" y="150" width="760" height="1580" as="geometry" />
        </mxCell>
        <object label="Student" Student="" id="gTqccJFOHpUSPNjWFWXz-6">
          <mxCell style="swimlane;startSize=20;html=1;" parent="gTqccJFOHpUSPNjWFWXz-5" vertex="1">
            <mxGeometry y="20" width="240" height="1560" as="geometry" />
          </mxCell>
        </object>
        <mxCell id="gTqccJFOHpUSPNjWFWXz-10" value="" style="ellipse;html=1;shape=startState;fillColor=#000000;strokeColor=#ff0000;flipV=1;direction=west;" parent="gTqccJFOHpUSPNjWFWXz-6" vertex="1">
          <mxGeometry x="30" y="45" width="30" height="30" as="geometry" />
        </mxCell>
        <mxCell id="gTqccJFOHpUSPNjWFWXz-12" value="Fill Login Details" style="rounded=1;whiteSpace=wrap;html=1;arcSize=40;fontColor=#000000;fillColor=#ffffc0;strokeColor=#ff0000;" parent="gTqccJFOHpUSPNjWFWXz-6" vertex="1">
          <mxGeometry x="110" y="40" width="120" height="40" as="geometry" />
        </mxCell>
        <mxCell id="gTqccJFOHpUSPNjWFWXz-14" value="" style="endArrow=classic;html=1;rounded=0;exitX=0;exitY=0.5;exitDx=0;exitDy=0;entryX=0;entryY=0.5;entryDx=0;entryDy=0;" parent="gTqccJFOHpUSPNjWFWXz-6" source="gTqccJFOHpUSPNjWFWXz-10" target="gTqccJFOHpUSPNjWFWXz-12" edge="1">
          <mxGeometry width="50" height="50" relative="1" as="geometry">
            <mxPoint x="240" y="120" as="sourcePoint" />
            <mxPoint x="290" y="70" as="targetPoint" />
          </mxGeometry>
        </mxCell>
        <mxCell id="gTqccJFOHpUSPNjWFWXz-31" value="Display Error" style="rounded=1;whiteSpace=wrap;html=1;arcSize=40;fontColor=#000000;fillColor=#ffffc0;strokeColor=#ff0000;" parent="gTqccJFOHpUSPNjWFWXz-6" vertex="1">
          <mxGeometry x="100" y="130" width="120" height="40" as="geometry" />
        </mxCell>
        <mxCell id="0Q5fj6hFg1ILPsmgxGI--2" value="Upload CV" style="rounded=1;whiteSpace=wrap;html=1;arcSize=40;fontColor=#000000;fillColor=#ffffc0;strokeColor=#ff0000;" vertex="1" parent="gTqccJFOHpUSPNjWFWXz-6">
          <mxGeometry x="100" y="250" width="120" height="40" as="geometry" />
        </mxCell>
        <mxCell id="0Q5fj6hFg1ILPsmgxGI--12" value="Apply for Internship" style="rounded=1;whiteSpace=wrap;html=1;arcSize=40;fontColor=#000000;fillColor=#ffffc0;strokeColor=#ff0000;" vertex="1" parent="gTqccJFOHpUSPNjWFWXz-6">
          <mxGeometry x="90" y="520" width="120" height="40" as="geometry" />
        </mxCell>
        <mxCell id="0Q5fj6hFg1ILPsmgxGI--4" value="Create Portfolio" style="rounded=1;whiteSpace=wrap;html=1;arcSize=40;fontColor=#000000;fillColor=#ffffc0;strokeColor=#ff0000;" vertex="1" parent="gTqccJFOHpUSPNjWFWXz-6">
          <mxGeometry x="100" y="330" width="120" height="40" as="geometry" />
        </mxCell>
        <mxCell id="0Q5fj6hFg1ILPsmgxGI--5" value="" style="endArrow=classic;html=1;rounded=0;exitX=0.5;exitY=1;exitDx=0;exitDy=0;entryX=0.5;entryY=0;entryDx=0;entryDy=0;" edge="1" parent="gTqccJFOHpUSPNjWFWXz-6" source="0Q5fj6hFg1ILPsmgxGI--2" target="0Q5fj6hFg1ILPsmgxGI--4">
          <mxGeometry width="50" height="50" relative="1" as="geometry">
            <mxPoint x="330" y="270" as="sourcePoint" />
            <mxPoint x="210" y="270" as="targetPoint" />
          </mxGeometry>
        </mxCell>
        <mxCell id="0Q5fj6hFg1ILPsmgxGI--23" value="" style="endArrow=classic;html=1;rounded=0;" edge="1" parent="gTqccJFOHpUSPNjWFWXz-6">
          <mxGeometry width="50" height="50" relative="1" as="geometry">
            <mxPoint x="160" y="470" as="sourcePoint" />
            <mxPoint x="158" y="520" as="targetPoint" />
          </mxGeometry>
        </mxCell>
        <mxCell id="0Q5fj6hFg1ILPsmgxGI--24" value="" style="endArrow=classic;html=1;rounded=0;" edge="1" parent="gTqccJFOHpUSPNjWFWXz-6">
          <mxGeometry width="50" height="50" relative="1" as="geometry">
            <mxPoint x="151" y="560" as="sourcePoint" />
            <mxPoint x="149" y="610" as="targetPoint" />
          </mxGeometry>
        </mxCell>
        <mxCell id="0Q5fj6hFg1ILPsmgxGI--36" value="Reads Notification" style="rounded=1;whiteSpace=wrap;html=1;arcSize=40;fontColor=#000000;fillColor=#ffffc0;strokeColor=#ff0000;" vertex="1" parent="gTqccJFOHpUSPNjWFWXz-6">
          <mxGeometry x="90" y="1010" width="120" height="40" as="geometry" />
        </mxCell>
        <mxCell id="0Q5fj6hFg1ILPsmgxGI--37" value="" style="endArrow=classic;html=1;rounded=0;" edge="1" parent="gTqccJFOHpUSPNjWFWXz-6">
          <mxGeometry width="50" height="50" relative="1" as="geometry">
            <mxPoint x="159.58000000000004" y="950" as="sourcePoint" />
            <mxPoint x="159.58000000000004" y="1010" as="targetPoint" />
          </mxGeometry>
        </mxCell>
        <mxCell id="0Q5fj6hFg1ILPsmgxGI--38" value="" style="endArrow=classic;html=1;rounded=0;" edge="1" parent="gTqccJFOHpUSPNjWFWXz-6">
          <mxGeometry width="50" height="50" relative="1" as="geometry">
            <mxPoint x="159.58000000000004" y="1050" as="sourcePoint" />
            <mxPoint x="159.58000000000004" y="1110" as="targetPoint" />
          </mxGeometry>
        </mxCell>
        <mxCell id="0Q5fj6hFg1ILPsmgxGI--39" value="Do Acceptence" style="rounded=1;whiteSpace=wrap;html=1;arcSize=40;fontColor=#000000;fillColor=#ffffc0;strokeColor=#ff0000;" vertex="1" parent="gTqccJFOHpUSPNjWFWXz-6">
          <mxGeometry x="90" y="1110" width="120" height="40" as="geometry" />
        </mxCell>
        <mxCell id="0Q5fj6hFg1ILPsmgxGI--41" value="" style="endArrow=classic;html=1;rounded=0;" edge="1" parent="gTqccJFOHpUSPNjWFWXz-6">
          <mxGeometry width="50" height="50" relative="1" as="geometry">
            <mxPoint x="159.50000000000006" y="1150" as="sourcePoint" />
            <mxPoint x="159.50000000000006" y="1210" as="targetPoint" />
          </mxGeometry>
        </mxCell>
        <mxCell id="0Q5fj6hFg1ILPsmgxGI--45" value="Requests Testimonial" style="rounded=1;whiteSpace=wrap;html=1;arcSize=40;fontColor=#000000;fillColor=#ffffc0;strokeColor=#ff0000;" vertex="1" parent="gTqccJFOHpUSPNjWFWXz-6">
          <mxGeometry x="80" y="1300" width="140" height="40" as="geometry" />
        </mxCell>
        <mxCell id="0Q5fj6hFg1ILPsmgxGI--46" value="" style="endArrow=classic;html=1;rounded=0;entryX=0.55;entryY=0.025;entryDx=0;entryDy=0;entryPerimeter=0;" edge="1" parent="gTqccJFOHpUSPNjWFWXz-6" target="0Q5fj6hFg1ILPsmgxGI--45">
          <mxGeometry width="50" height="50" relative="1" as="geometry">
            <mxPoint x="159.5" y="1230" as="sourcePoint" />
            <mxPoint x="159.5" y="1290" as="targetPoint" />
          </mxGeometry>
        </mxCell>
        <mxCell id="0Q5fj6hFg1ILPsmgxGI--47" value="" style="endArrow=classic;html=1;rounded=0;entryX=0.55;entryY=0.025;entryDx=0;entryDy=0;entryPerimeter=0;" edge="1" parent="gTqccJFOHpUSPNjWFWXz-6">
          <mxGeometry width="50" height="50" relative="1" as="geometry">
            <mxPoint x="161.25" y="1340" as="sourcePoint" />
            <mxPoint x="158.75" y="1411" as="targetPoint" />
          </mxGeometry>
        </mxCell>
        <mxCell id="0Q5fj6hFg1ILPsmgxGI--48" value="" style="endArrow=none;html=1;rounded=0;strokeWidth=10;" edge="1" parent="gTqccJFOHpUSPNjWFWXz-6">
          <mxGeometry width="50" height="50" relative="1" as="geometry">
            <mxPoint x="90" y="1420" as="sourcePoint" />
            <mxPoint x="630" y="1420" as="targetPoint" />
          </mxGeometry>
        </mxCell>
        <mxCell id="gTqccJFOHpUSPNjWFWXz-33" value="" style="endArrow=classic;html=1;rounded=0;exitX=1;exitY=0.5;exitDx=0;exitDy=0;entryX=0;entryY=0.5;entryDx=0;entryDy=0;" parent="gTqccJFOHpUSPNjWFWXz-5" source="gTqccJFOHpUSPNjWFWXz-12" target="gTqccJFOHpUSPNjWFWXz-24" edge="1">
          <mxGeometry width="50" height="50" relative="1" as="geometry">
            <mxPoint x="260" y="99.62" as="sourcePoint" />
            <mxPoint x="310" y="99.62" as="targetPoint" />
          </mxGeometry>
        </mxCell>
        <mxCell id="0Q5fj6hFg1ILPsmgxGI--6" value="" style="endArrow=classic;html=1;rounded=0;exitX=1;exitY=0.5;exitDx=0;exitDy=0;entryX=0;entryY=0.5;entryDx=0;entryDy=0;" edge="1" parent="gTqccJFOHpUSPNjWFWXz-5" source="0Q5fj6hFg1ILPsmgxGI--1" target="0Q5fj6hFg1ILPsmgxGI--7">
          <mxGeometry width="50" height="50" relative="1" as="geometry">
            <mxPoint x="330" y="290" as="sourcePoint" />
            <mxPoint x="540" y="280" as="targetPoint" />
          </mxGeometry>
        </mxCell>
        <mxCell id="gTqccJFOHpUSPNjWFWXz-7" value="GetPlaced" style="swimlane;startSize=20;html=1;" parent="gTqccJFOHpUSPNjWFWXz-5" vertex="1">
          <mxGeometry x="240" y="20" width="270" height="1560" as="geometry" />
        </mxCell>
        <mxCell id="gTqccJFOHpUSPNjWFWXz-24" value="Authenticate" style="rounded=1;whiteSpace=wrap;html=1;arcSize=40;fontColor=#000000;fillColor=#ffffc0;strokeColor=#ff0000;" parent="gTqccJFOHpUSPNjWFWXz-7" vertex="1">
          <mxGeometry x="75" y="40" width="120" height="40" as="geometry" />
        </mxCell>
        <mxCell id="gTqccJFOHpUSPNjWFWXz-25" value="" style="rhombus;whiteSpace=wrap;html=1;fontColor=#000000;fillColor=#ffffc0;strokeColor=#ff0000;" parent="gTqccJFOHpUSPNjWFWXz-7" vertex="1">
          <mxGeometry x="95" y="130" width="80" height="40" as="geometry" />
        </mxCell>
        <mxCell id="gTqccJFOHpUSPNjWFWXz-27" value="yes" style="edgeStyle=orthogonalEdgeStyle;html=1;align=left;verticalAlign=top;endArrow=open;endSize=8;strokeColor=#ff0000;rounded=0;" parent="gTqccJFOHpUSPNjWFWXz-7" edge="1">
          <mxGeometry x="-1" relative="1" as="geometry">
            <mxPoint x="135" y="210" as="targetPoint" />
            <Array as="points">
              <mxPoint x="134.81" y="210" />
            </Array>
            <mxPoint x="134.81" y="170" as="sourcePoint" />
          </mxGeometry>
        </mxCell>
        <mxCell id="gTqccJFOHpUSPNjWFWXz-28" value="" style="endArrow=classic;html=1;rounded=0;exitX=0.5;exitY=1;exitDx=0;exitDy=0;entryX=0.5;entryY=0;entryDx=0;entryDy=0;" parent="gTqccJFOHpUSPNjWFWXz-7" source="gTqccJFOHpUSPNjWFWXz-24" target="gTqccJFOHpUSPNjWFWXz-25" edge="1">
          <mxGeometry width="50" height="50" relative="1" as="geometry">
            <mxPoint x="120" y="120" as="sourcePoint" />
            <mxPoint x="170" y="120" as="targetPoint" />
          </mxGeometry>
        </mxCell>
        <mxCell id="0Q5fj6hFg1ILPsmgxGI--1" value="Dashboard" style="rounded=1;whiteSpace=wrap;html=1;arcSize=40;fontColor=#000000;fillColor=#ffffc0;strokeColor=#ff0000;" vertex="1" parent="gTqccJFOHpUSPNjWFWXz-7">
          <mxGeometry x="80" y="260" width="120" height="40" as="geometry" />
        </mxCell>
        <mxCell id="0Q5fj6hFg1ILPsmgxGI--10" value="Notification" style="rounded=1;whiteSpace=wrap;html=1;arcSize=40;fontColor=#000000;fillColor=#ffffc0;strokeColor=#ff0000;" vertex="1" parent="gTqccJFOHpUSPNjWFWXz-7">
          <mxGeometry x="95" y="520" width="120" height="40" as="geometry" />
        </mxCell>
        <mxCell id="0Q5fj6hFg1ILPsmgxGI--14" value="" style="endArrow=none;html=1;rounded=0;strokeWidth=10;" edge="1" parent="gTqccJFOHpUSPNjWFWXz-7">
          <mxGeometry width="50" height="50" relative="1" as="geometry">
            <mxPoint x="-130" y="220" as="sourcePoint" />
            <mxPoint x="410" y="220" as="targetPoint" />
          </mxGeometry>
        </mxCell>
        <mxCell id="0Q5fj6hFg1ILPsmgxGI--25" value="" style="endArrow=none;html=1;rounded=0;strokeWidth=10;" edge="1" parent="gTqccJFOHpUSPNjWFWXz-7">
          <mxGeometry width="50" height="50" relative="1" as="geometry">
            <mxPoint x="-140" y="620" as="sourcePoint" />
            <mxPoint x="400" y="620" as="targetPoint" />
          </mxGeometry>
        </mxCell>
        <mxCell id="0Q5fj6hFg1ILPsmgxGI--33" value="" style="endArrow=none;html=1;rounded=0;strokeWidth=10;" edge="1" parent="gTqccJFOHpUSPNjWFWXz-7">
          <mxGeometry width="50" height="50" relative="1" as="geometry">
            <mxPoint x="-150" y="950" as="sourcePoint" />
            <mxPoint x="390" y="950" as="targetPoint" />
          </mxGeometry>
        </mxCell>
        <mxCell id="0Q5fj6hFg1ILPsmgxGI--34" value="Notification" style="rounded=1;whiteSpace=wrap;html=1;arcSize=40;fontColor=#000000;fillColor=#ffffc0;strokeColor=#ff0000;" vertex="1" parent="gTqccJFOHpUSPNjWFWXz-7">
          <mxGeometry x="70" y="1010" width="120" height="40" as="geometry" />
        </mxCell>
        <mxCell id="0Q5fj6hFg1ILPsmgxGI--35" value="" style="endArrow=classic;html=1;rounded=0;" edge="1" parent="gTqccJFOHpUSPNjWFWXz-7">
          <mxGeometry width="50" height="50" relative="1" as="geometry">
            <mxPoint x="129" y="950" as="sourcePoint" />
            <mxPoint x="129" y="1010" as="targetPoint" />
          </mxGeometry>
        </mxCell>
        <mxCell id="0Q5fj6hFg1ILPsmgxGI--42" value="" style="endArrow=none;html=1;rounded=0;strokeWidth=10;" edge="1" parent="gTqccJFOHpUSPNjWFWXz-7">
          <mxGeometry width="50" height="50" relative="1" as="geometry">
            <mxPoint x="-150" y="1220" as="sourcePoint" />
            <mxPoint x="390" y="1220" as="targetPoint" />
          </mxGeometry>
        </mxCell>
        <mxCell id="0Q5fj6hFg1ILPsmgxGI--49" value="" style="endArrow=classic;html=1;rounded=0;entryX=0.55;entryY=0.025;entryDx=0;entryDy=0;entryPerimeter=0;" edge="1" parent="gTqccJFOHpUSPNjWFWXz-7">
          <mxGeometry width="50" height="50" relative="1" as="geometry">
            <mxPoint x="122.5" y="1420" as="sourcePoint" />
            <mxPoint x="120" y="1491" as="targetPoint" />
          </mxGeometry>
        </mxCell>
        <mxCell id="0Q5fj6hFg1ILPsmgxGI--50" value="Accept Request" style="rounded=1;whiteSpace=wrap;html=1;arcSize=40;fontColor=#000000;fillColor=#ffffc0;strokeColor=#ff0000;" vertex="1" parent="gTqccJFOHpUSPNjWFWXz-7">
          <mxGeometry x="70" y="1490" width="120" height="40" as="geometry" />
        </mxCell>
        <mxCell id="gTqccJFOHpUSPNjWFWXz-8" value="Company" style="swimlane;startSize=20;html=1;" parent="gTqccJFOHpUSPNjWFWXz-5" vertex="1">
          <mxGeometry x="510" y="20" width="250" height="1560" as="geometry" />
        </mxCell>
        <mxCell id="0Q5fj6hFg1ILPsmgxGI--7" value="Announce Internship" style="rounded=1;whiteSpace=wrap;html=1;arcSize=40;fontColor=#000000;fillColor=#ffffc0;strokeColor=#ff0000;" vertex="1" parent="gTqccJFOHpUSPNjWFWXz-8">
          <mxGeometry x="30" y="260" width="120" height="40" as="geometry" />
        </mxCell>
        <mxCell id="0Q5fj6hFg1ILPsmgxGI--8" value="Announce Round" style="rounded=1;whiteSpace=wrap;html=1;arcSize=40;fontColor=#000000;fillColor=#ffffc0;strokeColor=#ff0000;" vertex="1" parent="gTqccJFOHpUSPNjWFWXz-8">
          <mxGeometry x="30" y="380" width="120" height="40" as="geometry" />
        </mxCell>
        <mxCell id="0Q5fj6hFg1ILPsmgxGI--9" value="" style="endArrow=classic;html=1;rounded=0;exitX=0.5;exitY=1;exitDx=0;exitDy=0;" edge="1" parent="gTqccJFOHpUSPNjWFWXz-8" source="0Q5fj6hFg1ILPsmgxGI--7">
          <mxGeometry width="50" height="50" relative="1" as="geometry">
            <mxPoint x="-60" y="270" as="sourcePoint" />
            <mxPoint x="90" y="380" as="targetPoint" />
          </mxGeometry>
        </mxCell>
        <mxCell id="0Q5fj6hFg1ILPsmgxGI--16" value="" style="endArrow=classic;html=1;rounded=0;entryX=0.5;entryY=0;entryDx=0;entryDy=0;" edge="1" parent="gTqccJFOHpUSPNjWFWXz-8" target="0Q5fj6hFg1ILPsmgxGI--7">
          <mxGeometry width="50" height="50" relative="1" as="geometry">
            <mxPoint x="90" y="230" as="sourcePoint" />
            <mxPoint x="150" y="240" as="targetPoint" />
          </mxGeometry>
        </mxCell>
        <mxCell id="0Q5fj6hFg1ILPsmgxGI--20" value="" style="endArrow=classic;html=1;rounded=0;exitX=0.5;exitY=1;exitDx=0;exitDy=0;" edge="1" parent="gTqccJFOHpUSPNjWFWXz-8">
          <mxGeometry width="50" height="50" relative="1" as="geometry">
            <mxPoint x="89.58000000000004" y="420" as="sourcePoint" />
            <mxPoint x="90" y="460" as="targetPoint" />
          </mxGeometry>
        </mxCell>
        <mxCell id="0Q5fj6hFg1ILPsmgxGI--19" value="" style="endArrow=none;html=1;rounded=0;strokeWidth=10;" edge="1" parent="gTqccJFOHpUSPNjWFWXz-8">
          <mxGeometry width="50" height="50" relative="1" as="geometry">
            <mxPoint x="-400" y="470" as="sourcePoint" />
            <mxPoint x="140" y="470" as="targetPoint" />
          </mxGeometry>
        </mxCell>
        <mxCell id="0Q5fj6hFg1ILPsmgxGI--26" value="CG Cut" style="rounded=1;whiteSpace=wrap;html=1;arcSize=40;fontColor=#000000;fillColor=#ffffc0;strokeColor=#ff0000;" vertex="1" parent="gTqccJFOHpUSPNjWFWXz-8">
          <mxGeometry x="30" y="670" width="120" height="40" as="geometry" />
        </mxCell>
        <mxCell id="0Q5fj6hFg1ILPsmgxGI--27" value="" style="endArrow=classic;html=1;rounded=0;" edge="1" parent="gTqccJFOHpUSPNjWFWXz-8">
          <mxGeometry width="50" height="50" relative="1" as="geometry">
            <mxPoint x="82" y="620" as="sourcePoint" />
            <mxPoint x="80" y="670" as="targetPoint" />
          </mxGeometry>
        </mxCell>
        <mxCell id="0Q5fj6hFg1ILPsmgxGI--28" value="" style="endArrow=classic;html=1;rounded=0;" edge="1" parent="gTqccJFOHpUSPNjWFWXz-8">
          <mxGeometry width="50" height="50" relative="1" as="geometry">
            <mxPoint x="82" y="710" as="sourcePoint" />
            <mxPoint x="80" y="760" as="targetPoint" />
          </mxGeometry>
        </mxCell>
        <mxCell id="0Q5fj6hFg1ILPsmgxGI--29" value="Student Shortlisting" style="rounded=1;whiteSpace=wrap;html=1;arcSize=40;fontColor=#000000;fillColor=#ffffc0;strokeColor=#ff0000;" vertex="1" parent="gTqccJFOHpUSPNjWFWXz-8">
          <mxGeometry x="30" y="760" width="120" height="40" as="geometry" />
        </mxCell>
        <mxCell id="0Q5fj6hFg1ILPsmgxGI--30" value="" style="endArrow=classic;html=1;rounded=0;" edge="1" parent="gTqccJFOHpUSPNjWFWXz-8">
          <mxGeometry width="50" height="50" relative="1" as="geometry">
            <mxPoint x="82" y="800" as="sourcePoint" />
            <mxPoint x="80" y="850" as="targetPoint" />
          </mxGeometry>
        </mxCell>
        <mxCell id="0Q5fj6hFg1ILPsmgxGI--31" value="Result Announcement" style="rounded=1;whiteSpace=wrap;html=1;arcSize=40;fontColor=#000000;fillColor=#ffffc0;strokeColor=#ff0000;" vertex="1" parent="gTqccJFOHpUSPNjWFWXz-8">
          <mxGeometry x="30" y="850" width="120" height="40" as="geometry" />
        </mxCell>
        <mxCell id="0Q5fj6hFg1ILPsmgxGI--32" value="" style="endArrow=classic;html=1;rounded=0;" edge="1" parent="gTqccJFOHpUSPNjWFWXz-8">
          <mxGeometry width="50" height="50" relative="1" as="geometry">
            <mxPoint x="82" y="890" as="sourcePoint" />
            <mxPoint x="80" y="940" as="targetPoint" />
          </mxGeometry>
        </mxCell>
        <mxCell id="0Q5fj6hFg1ILPsmgxGI--43" value="Closes Announcement" style="rounded=1;whiteSpace=wrap;html=1;arcSize=40;fontColor=#000000;fillColor=#ffffc0;strokeColor=#ff0000;" vertex="1" parent="gTqccJFOHpUSPNjWFWXz-8">
          <mxGeometry x="30" y="1290" width="120" height="40" as="geometry" />
        </mxCell>
        <mxCell id="0Q5fj6hFg1ILPsmgxGI--44" value="" style="endArrow=classic;html=1;rounded=0;" edge="1" parent="gTqccJFOHpUSPNjWFWXz-8">
          <mxGeometry width="50" height="50" relative="1" as="geometry">
            <mxPoint x="70" y="1230" as="sourcePoint" />
            <mxPoint x="70" y="1290" as="targetPoint" />
          </mxGeometry>
        </mxCell>
        <mxCell id="gTqccJFOHpUSPNjWFWXz-29" value="no" style="edgeStyle=orthogonalEdgeStyle;html=1;align=left;verticalAlign=bottom;endArrow=open;endSize=8;strokeColor=#ff0000;rounded=0;exitX=0;exitY=0.5;exitDx=0;exitDy=0;" parent="1" source="gTqccJFOHpUSPNjWFWXz-25" edge="1">
          <mxGeometry x="-0.7404" relative="1" as="geometry">
            <mxPoint x="460" y="320" as="targetPoint" />
            <mxPoint x="665" y="330" as="sourcePoint" />
            <mxPoint as="offset" />
          </mxGeometry>
        </mxCell>
        <mxCell id="0Q5fj6hFg1ILPsmgxGI--17" value="" style="endArrow=classic;html=1;rounded=0;entryX=0.5;entryY=0;entryDx=0;entryDy=0;" edge="1" parent="1" target="0Q5fj6hFg1ILPsmgxGI--1">
          <mxGeometry width="50" height="50" relative="1" as="geometry">
            <mxPoint x="620" y="400" as="sourcePoint" />
            <mxPoint x="850" y="440" as="targetPoint" />
          </mxGeometry>
        </mxCell>
        <mxCell id="0Q5fj6hFg1ILPsmgxGI--18" value="" style="endArrow=classic;html=1;rounded=0;entryX=0.5;entryY=0;entryDx=0;entryDy=0;" edge="1" parent="1" target="0Q5fj6hFg1ILPsmgxGI--2">
          <mxGeometry width="50" height="50" relative="1" as="geometry">
            <mxPoint x="400" y="400" as="sourcePoint" />
            <mxPoint x="630" y="430" as="targetPoint" />
          </mxGeometry>
        </mxCell>
        <mxCell id="0Q5fj6hFg1ILPsmgxGI--22" value="" style="endArrow=classic;html=1;rounded=0;" edge="1" parent="1" target="0Q5fj6hFg1ILPsmgxGI--10">
          <mxGeometry width="50" height="50" relative="1" as="geometry">
            <mxPoint x="640" y="640" as="sourcePoint" />
            <mxPoint x="850" y="640" as="targetPoint" />
          </mxGeometry>
        </mxCell>
        <mxCell id="0Q5fj6hFg1ILPsmgxGI--51" value="" style="endArrow=classic;html=1;rounded=0;exitX=0;exitY=0.5;exitDx=0;exitDy=0;" edge="1" parent="1" source="0Q5fj6hFg1ILPsmgxGI--50" target="0Q5fj6hFg1ILPsmgxGI--52">
          <mxGeometry width="50" height="50" relative="1" as="geometry">
            <mxPoint x="612.5" y="1600" as="sourcePoint" />
            <mxPoint x="400" y="1680" as="targetPoint" />
          </mxGeometry>
        </mxCell>
        <mxCell id="0Q5fj6hFg1ILPsmgxGI--52" value="" style="ellipse;html=1;shape=endState;fillColor=#000000;strokeColor=#ff0000;" vertex="1" parent="1">
          <mxGeometry x="385" y="1665.0000000000005" width="30" height="30" as="geometry" />
        </mxCell>
      </root>
    </mxGraphModel>
  </diagram>
</mxfile>
